<svg width="11" height="14" viewBox="0 0 11 14" fill="none" xmlns="http://www.w3.org/2000/svg">
<path d="M5.0625 6.5625C5.89093 6.5625 6.5625 5.89093 6.5625 5.0625C6.5625 4.23407 5.89093 3.5625 5.0625 3.5625C4.23407 3.5625 3.5625 4.23407 3.5625 5.0625C3.5625 5.89093 4.23407 6.5625 5.0625 6.5625Z" stroke="white" stroke-width="1.125"/>
<path d="M9.5625 5.0625C9.5625 7.548 5.0625 12.5625 5.0625 12.5625C5.0625 12.5625 0.5625 7.548 0.5625 5.0625C0.5625 3.86903 1.03661 2.72443 1.88052 1.88052C2.72443 1.03661 3.86903 0.5625 5.0625 0.5625C6.25597 0.5625 7.40057 1.03661 8.24448 1.88052C9.08839 2.72443 9.5625 3.86903 9.5625 5.0625Z" stroke="white" stroke-width="1.125"/>
</svg>
