<svg width="126" height="31" viewBox="0 0 126 31" fill="none" xmlns="http://www.w3.org/2000/svg">
<path d="M51.8834 20.8597C49.4661 23.7054 46.6587 24.8362 43.8126 24.8362C38.432 24.8362 34.1431 20.9763 34.1431 15.9078C34.1431 10.8781 38.2371 6.97925 43.6175 6.97925C46.4639 6.97925 49.271 8.10993 51.6883 10.9561L48.1013 13.4904C46.8147 11.6581 45.3332 10.9171 43.6175 10.9171C40.8493 10.9171 38.5878 13.1396 38.5878 15.9078C38.5878 18.7148 41.0442 20.8983 43.8126 20.8983C45.528 20.8983 47.0487 20.158 48.3743 18.481L51.8834 20.8597Z" fill="#121212"/>
<path d="M53.8706 0H58.3545V24.4857H53.8706V0Z" fill="#121212"/>
<path d="M70.2062 6.97925C75.5867 6.97925 79.8757 10.8781 79.8757 15.9078C79.8757 20.9376 75.5867 24.8362 70.2062 24.8362C64.8259 24.8362 60.498 20.9376 60.498 15.9078C60.498 10.8781 64.8259 6.97925 70.2062 6.97925ZM70.2062 21.0542C73.0134 21.0542 75.5867 18.7927 75.5867 15.9078C75.5867 13.0226 73.0134 10.7612 70.2062 10.7612C67.36 10.7612 64.8259 13.0226 64.8259 15.9078C64.8259 18.7927 67.36 21.0542 70.2062 21.0542Z" fill="#121212"/>
<path d="M79.1641 7.33008H84.4278L88.678 16.4928L93.2786 7.33008H98.1526L88.678 25.5385L79.1641 7.33008Z" fill="#121212"/>
<path d="M113.703 22.5361C111.988 23.9786 109.609 24.8362 107.115 24.8362C101.734 24.8362 97.4058 20.9376 97.4058 15.9078C97.4058 10.8781 101.344 6.97925 106.724 6.97925C112.105 6.97925 115.613 10.8781 115.613 15.9078V17.1944H101.889C102.513 19.4558 104.697 21.0542 107.115 21.0542C108.596 21.0542 109.883 20.5865 111.052 19.3778L113.703 22.5361ZM110.896 13.5294C110.233 11.9699 108.752 10.7612 106.724 10.7612C104.736 10.7612 103.099 11.853 102.28 13.5294H110.896Z" fill="#121212"/>
<path d="M117.812 14.8551C117.812 10.7612 120.932 7.33008 126 7.33008V11.3459C123.817 11.3459 122.258 12.6719 122.258 15.4011V24.4857H117.812V14.8551Z" fill="#121212"/>
<path d="M13.8839 8.03584C13.8839 4.20469 10.7744 1.09387 6.94048 1.09387C3.10742 1.09387 0 4.20072 0 8.03192C0 11.8631 3.10737 14.9779 6.94222 14.9779H13.8839V8.03584Z" fill="#121212"/>
<path d="M15.8311 8.03593C15.8311 4.20475 18.9406 1.09393 22.7745 1.09393C26.6076 1.09393 29.715 4.20078 29.715 8.03193C29.715 11.8631 26.6076 14.9779 22.7728 14.9779H15.8311V8.03593Z" fill="#121212"/>
<path d="M15.8311 23.8673C15.8311 27.7022 18.9397 30.8093 22.7752 30.8093C26.6064 30.8093 29.715 27.7045 29.715 23.8696C29.715 20.0383 26.6065 16.9253 22.7728 16.9253H15.8311V23.8673Z" fill="#121212"/>
<path d="M13.884 23.8673C13.884 27.7022 10.7753 30.8093 6.93989 30.8093C3.10866 30.8093 0 27.7045 0 23.8696C0 20.0383 3.1086 16.9253 6.94225 16.9253H13.884V23.8673ZM6.93989 28.8517C9.69507 28.8517 11.9366 26.6168 11.9366 23.8696V18.8737H6.94623C4.18983 18.8737 1.94716 21.1235 1.94716 23.8696C1.94716 26.6168 4.18681 28.8517 6.93989 28.8517Z" fill="#121212"/>
</svg>
