<svg width="126" height="55" viewBox="0 0 126 55" fill="none" xmlns="http://www.w3.org/2000/svg">
<path fill-rule="evenodd" clip-rule="evenodd" d="M16.223 9.98357C31.0548 -1.92025 45.6118 -1.84696 51.2353 3.29629C50.7531 3.34066 50.2776 3.39273 49.8118 3.46314C49.5392 3.50171 49.2669 3.54415 48.995 3.59044C44.6879 -0.256628 33.5749 5.11229 19.7856 15.8829C5.40996 27.1155 0.682374 36.968 4.56223 41.8017C8.44209 46.6354 20.6931 43.6794 34.4804 31.9231C44.0282 23.7806 49.4212 15.8993 50.5428 10.2179C51.6562 9.78924 52.7967 9.43484 53.9569 9.15707C54.7439 16.5301 49.7867 27.9941 37.8222 37.3451C22.54 49.2894 8.52792 51.3784 2.61411 43.8115C-3.29971 36.2447 0.647655 22.4796 16.223 9.98357Z" fill="#121212"/>
<path fill-rule="evenodd" clip-rule="evenodd" d="M28.2872 16.3246C43.9175 3.98006 59.1486 3.28086 63.8868 9.76657C68.625 16.2523 64.124 31.4303 49.2045 43.6428C35.4354 54.9139 22.112 57.1138 15.5462 51.4189L15.4498 51.3359C15.363 51.2588 15.2771 51.1816 15.1932 51.1016L15.1691 51.0784C15.0708 50.9852 14.9743 50.8888 14.8798 50.7891C15.0675 50.773 15.2546 50.7547 15.4411 50.7341L15.7709 50.6965L16.1326 50.6502L16.2965 50.6281H16.3293L16.4258 50.6136L16.4914 50.6039L16.5241 50.5991L16.5897 50.5895L16.6225 50.5847L16.6881 50.575L16.7209 50.5702L16.7537 50.5654L16.9167 50.5393L16.9494 50.5335L16.9822 50.5277C17.1432 50.6379 17.31 50.7393 17.4818 50.8315H17.4905C17.5721 50.8753 17.6551 50.9171 17.7393 50.9569L17.7663 50.9695C17.8441 51.0061 17.9232 51.0408 18.0036 51.0736L18.0499 51.0929C18.1244 51.1231 18.2 51.1521 18.2765 51.1797L18.3421 51.2028C18.4141 51.2273 18.4867 51.2507 18.56 51.2733L18.6382 51.2964C24.3417 52.9571 34.633 47.4889 45.7567 38.0993C61.9589 24.4171 66.2255 12.6502 60.4978 9.44736C56.0432 6.95626 45.5493 10.8593 31.5392 21.7852C21.3086 29.7648 15.3447 37.5785 14.4371 43.4528C13.53 43.6799 12.608 43.843 11.6779 43.9408C10.7367 36.2486 16.1316 25.9167 28.2804 16.3198" fill="#121212"/>
<path d="M75.2875 49.8112C76.2191 49.6257 77.1188 49.3064 77.9589 48.8632C79.5921 48.0546 80.9895 46.839 82.0163 45.3334C82.307 44.7357 82.4487 44.0765 82.4294 43.4122C82.4101 42.7478 82.2303 42.098 81.9054 41.5182C80.8897 40.39 79.4737 39.7027 77.9589 39.6028C77.794 39.5855 77.6976 39.5826 77.6976 39.5826L75.2865 39.6038L62.8696 39.7128L57.0166 54.8001L63.2149 54.8455L65.3164 49.979L74.163 49.9241C74.5401 49.92 74.9161 49.8826 75.2865 49.8122M65.9471 47.4686L67.9724 42.3669C67.9724 42.3669 74.325 42.4151 75.0956 42.4151C75.1631 42.4151 75.2277 42.4151 75.2885 42.4151C77.9888 42.4894 77.1315 45.2215 76.1565 46.0712C75.8859 46.3053 75.5955 46.5153 75.2885 46.699C74.6409 47.1047 73.9144 47.3678 73.1571 47.4706L65.9471 47.4686Z" fill="#121212"/>
<path d="M90.4204 39.6713L89.1262 40.8286L77.9601 50.7891L75.2887 53.1722L73.4785 54.7876H79.6874L82.2653 51.7554L89.1262 51.7882L92.249 51.8037V54.8358L98.7463 54.7876L98.6498 39.6269L90.4204 39.6713ZM92.195 49.3155L89.1262 49.2759L86.0314 49.2364L89.1262 46.2467L91.2421 44.2059H92.221L92.195 49.3155Z" fill="#121212"/>
<path d="M126 39.5758H118.064L112.974 43.8771L109.166 39.6964H101.951L108.805 47.2535L99.7871 54.8107H107.523L112.172 50.9116L115.699 54.8512L123.074 54.7712L116.419 47.5756L126 39.5758Z" fill="#121212"/>
</svg>
